<svg width="16" height="16" viewBox="0 0 16 16" fill="none" xmlns="http://www.w3.org/2000/svg">
<path fill-rule="evenodd" clip-rule="evenodd" d="M10.6926 1H5.30741H5.30684C4.49939 1 3.85717 1 3.33901 1.04227C2.80828 1.08555 2.35574 1.17609 1.94137 1.38685C1.27235 1.72713 0.728419 2.2701 0.387529 2.93794C0.176398 3.35158 0.0856983 3.80334 0.0423362 4.33313C-8.38935e-06 4.85049 -4.62947e-06 5.49174 9.96262e-08 6.29805V6.29806V9.70189V9.7019C-4.62947e-06 10.5083 -8.38935e-06 11.1495 0.0423362 11.6668C0.0856983 12.1966 0.176398 12.6484 0.387529 13.0621C0.728419 13.7298 1.27235 14.2729 1.94137 14.6131C2.35574 14.8239 2.80828 14.9144 3.33901 14.9577C3.85729 15 4.49969 15 5.30743 15H10.6926C11.5003 15 12.1427 15 12.661 14.9577C13.1918 14.9144 13.6443 14.8239 14.0587 14.6131C14.7277 14.2729 15.2716 13.7298 15.6125 13.0621C15.8236 12.6484 15.9144 12.1966 15.9577 11.6668C16 11.1495 16 10.5083 16 9.70189V6.29807C16 5.49176 16 4.85049 15.9577 4.33313C15.9144 3.80334 15.8236 3.35158 15.6125 2.93794C15.2716 2.2701 14.7277 1.72713 14.0587 1.38685C13.6443 1.17609 13.1918 1.08555 12.661 1.04227C12.1428 1 11.5006 1 10.6932 1H10.6926ZM2.47943 2.441C2.69888 2.32939 2.97809 2.25874 3.43553 2.22143C3.89988 2.18356 4.49386 2.1831 5.33335 2.1831H6.21875V13.8169H5.33335C4.49386 13.8169 3.89988 13.8164 3.43553 13.7785C2.97809 13.7413 2.69888 13.6706 2.47943 13.559C2.03342 13.3321 1.6708 12.9702 1.44354 12.525C1.33173 12.3059 1.26096 12.0272 1.22359 11.5705C1.18564 11.107 1.18519 10.5141 1.18519 9.67606V6.32394C1.18519 5.48593 1.18564 4.893 1.22359 4.42947C1.26096 3.97284 1.33173 3.69412 1.44354 3.47506C1.6708 3.02983 2.03342 2.66785 2.47943 2.441ZM7.40394 13.8169H10.6667C11.5062 13.8169 12.1001 13.8164 12.5645 13.7785C13.0219 13.7413 13.3011 13.6706 13.5206 13.559C13.9666 13.3321 14.3293 12.9702 14.5565 12.525C14.6683 12.3059 14.7391 12.0272 14.7765 11.5705C14.8144 11.107 14.8148 10.5141 14.8148 9.67606V6.32394C14.8148 5.48593 14.8144 4.893 14.7765 4.42947C14.7391 3.97284 14.6683 3.69412 14.5565 3.47506C14.3293 3.02983 13.9666 2.66785 13.5206 2.441C13.3011 2.32939 13.0219 2.25874 12.5645 2.22143C12.1001 2.18356 11.5062 2.1831 10.6667 2.1831H7.40394V13.8169ZM2.44531 4.47607C2.44531 4.14937 2.71063 3.88452 3.03791 3.88452H4.37124C4.69852 3.88452 4.96384 4.14937 4.96384 4.47607C4.96384 4.80277 4.69852 5.06762 4.37124 5.06762H3.03791C2.71063 5.06762 2.44531 4.80277 2.44531 4.47607ZM3.03791 6.10107C2.71063 6.10107 2.44531 6.36592 2.44531 6.69262C2.44531 7.01933 2.71063 7.28417 3.03791 7.28417H4.37124C4.69852 7.28417 4.96384 7.01933 4.96384 6.69262C4.96384 6.36592 4.69852 6.10107 4.37124 6.10107H3.03791Z" fill="#74798B"/>
</svg>
